<svg width="37" height="39" viewBox="0 0 37 39" fill="none" xmlns="http://www.w3.org/2000/svg">
<path d="M10.4217 7.86499L7.64666 4.95624L5.47291 7.24749L8.23249 10.1562L10.4217 7.86499ZM6.16666 17.0625H1.54166V20.3125H6.16666V17.0625ZM20.0417 0.893738H16.9583V5.68749H20.0417V0.893738ZM31.5271 7.24749L29.3533 4.95624L26.5937 7.86499L28.7675 10.1562L31.5271 7.24749ZM26.5783 29.51L29.3379 32.435L31.5117 30.1437L28.7367 27.235L26.5783 29.51ZM30.8333 17.0625V20.3125H35.4583V17.0625H30.8333ZM18.5 8.93749C13.3971 8.93749 9.24999 13.3087 9.24999 18.6875C9.24999 24.0662 13.3971 28.4375 18.5 28.4375C23.6029 28.4375 27.75 24.0662 27.75 18.6875C27.75 13.3087 23.6029 8.93749 18.5 8.93749ZM16.9583 36.4812H20.0417V31.6875H16.9583V36.4812ZM5.47291 30.1275L7.64666 32.4187L10.4062 29.4937L8.23249 27.2025L5.47291 30.1275Z" fill="#FFDCB4"/>
</svg>
